<?xml version="1.0" standalone="no"?>
<!DOCTYPE svg PUBLIC "-//W3C//DTD SVG 20010904//EN"
 "http://www.w3.org/TR/2001/REC-SVG-20010904/DTD/svg10.dtd">
<svg version="1.0" xmlns="http://www.w3.org/2000/svg"
 width="512.000000pt" height="512.000000pt" viewBox="0 0 512.000000 512.000000"
 preserveAspectRatio="xMidYMid meet">
<metadata>
Created by potrace 1.14, written by Peter Selinger 2001-2017
</metadata>
<g transform="translate(0.000000,512.000000) scale(0.100000,-0.100000)"
fill="#000000" stroke="none">
<path d="M1885 5114 c-11 -2 -45 -9 -75 -15 -536 -103 -912 -616 -846 -1154
27 -214 116 -416 250 -562 53 -58 96 -74 146 -53 16 7 141 124 279 261 182
182 251 245 255 233 9 -25 19 -141 20 -229 0 -129 -15 -239 -49 -359 -24 -83
-33 -108 -103 -281 -23 -55 -43 -113 -45 -130 -5 -34 15 -80 38 -89 15 -5 15
-13 0 -106 -2 -14 -4 -41 -4 -60 -1 -30 -6 -37 -31 -47 -16 -6 -34 -22 -39
-35 -12 -32 -3 -134 24 -267 23 -120 128 -344 210 -452 49 -63 161 -181 220
-229 126 -105 321 -199 495 -240 30 -7 57 -16 60 -20 3 -5 5 -191 4 -414 0
-306 -3 -409 -13 -419 -6 -6 -114 -64 -238 -127 -154 -78 -234 -124 -247 -143
-38 -52 -15 -133 45 -164 18 -10 179 -13 679 -13 637 0 656 1 688 20 18 11 37
32 43 48 14 36 5 101 -18 123 -10 10 -121 71 -248 135 -126 63 -232 118 -235
121 -7 7 -8 820 -1 832 4 5 22 13 41 16 62 11 207 63 290 105 210 106 381 264
504 467 31 51 56 95 56 97 0 3 11 29 25 58 57 123 97 314 98 468 1 202 -37
359 -145 599 -37 81 -81 237 -92 321 -3 25 -8 56 -11 70 -6 31 -7 246 -1 280
3 14 7 42 10 63 3 20 8 52 11 71 3 19 21 82 40 142 39 119 43 163 19 203 -33
56 -32 56 -388 59 -181 1 -331 4 -333 5 -2 2 9 62 24 133 17 85 34 139 48 159
13 17 105 86 206 154 337 228 366 249 373 276 15 59 -52 113 -105 85 -70 -38
-553 -376 -579 -407 -18 -20 -39 -52 -47 -71 -12 -30 -52 -198 -69 -296 -3
-17 -6 -32 -8 -33 -3 -3 -335 -4 -674 -3 l-92 0 199 198 c213 212 224 229 201
298 -14 41 -120 131 -223 188 -64 36 -199 92 -239 100 -13 2 -45 10 -73 16
-49 12 -290 22 -330 14z"/>
</g>
</svg>
